<svg id="Layer_1" data-name="Layer 1" xmlns="http://www.w3.org/2000/svg" viewBox="0 0 1024 1251"><defs><style>.cls-1{fill:#848484;opacity:0.75;}</style></defs><polygon class="cls-1" points="40.05 1212.9 40.05 1089.6 0.45 1089.6 0.45 1251 40.05 1251 161.85 1251 161.85 1212.9 40.05 1212.9"/><polygon class="cls-1" points="985.9 1211.4 862.6 1211.4 862.6 1251 1024 1251 1024 1211.4 1024 1089.6 985.9 1089.6 985.9 1211.4"/><polygon class="cls-1" points="984.4 38.1 984.4 161.4 1024 161.4 1024 0 984.4 0 862.6 0 862.6 38.1 984.4 38.1"/><polygon class="cls-1" points="38.1 39.6 161.4 39.6 161.4 0 0 0 0 39.6 0 161.4 38.1 161.4 38.1 39.6"/></svg>